<svg xmlns="http://www.w3.org/2000/svg" version="1.1" xmlns:xlink="http://www.w3.org/1999/xlink" xmlns:svgjs="http://svgjs.com/svgjs" width="1440" height="560" preserveAspectRatio="none" viewBox="0 0 1440 560"><g mask="url(&quot;#SvgjsMask1041&quot;)" fill="none"><g transform="translate(0, 0)" stroke-linecap="round" stroke="url(#SvgjsLinearGradient1042)"><path d="M250 204.34 L250 355.66" stroke-width="7.5"></path><path d="M260 208.56 L260 351.44" stroke-width="7.5"></path><path d="M270 190.55 L270 369.45" stroke-width="7.5"></path><path d="M280 250.51 L280 309.49" stroke-width="7.5"></path><path d="M290 147.82 L290 412.18" stroke-width="7.5"></path><path d="M300 180.67 L300 379.33" stroke-width="7.5"></path><path d="M310 203.49 L310 356.51" stroke-width="7.5"></path><path d="M320 161.75 L320 398.25" stroke-width="7.5"></path><path d="M330 190.53 L330 369.47" stroke-width="7.5"></path><path d="M340 177.25 L340 382.75" stroke-width="7.5"></path><path d="M350 139.09 L350 420.91" stroke-width="7.5"></path><path d="M360 249.19 L360 310.81" stroke-width="7.5"></path><path d="M370 204.59 L370 355.4" stroke-width="7.5"></path><path d="M380 110.9 L380 449.1" stroke-width="7.5"></path><path d="M390 123.7 L390 436.3" stroke-width="7.5"></path><path d="M400 171.38 L400 388.62" stroke-width="7.5"></path><path d="M410 196.13 L410 363.87" stroke-width="7.5"></path><path d="M420 124.67 L420 435.33" stroke-width="7.5"></path><path d="M430 124.75 L430 435.25" stroke-width="7.5"></path><path d="M440 114.15 L440 445.85" stroke-width="7.5"></path><path d="M450 258.49 L450 301.51" stroke-width="7.5"></path><path d="M460 171.5 L460 388.5" stroke-width="7.5"></path><path d="M470 201.47 L470 358.53" stroke-width="7.5"></path><path d="M480 236.53 L480 323.47" stroke-width="7.5"></path><path d="M490 113.75 L490 446.25" stroke-width="7.5"></path><path d="M500 137.71 L500 422.29" stroke-width="7.5"></path><path d="M510 146.94 L510 413.06" stroke-width="7.5"></path><path d="M520 227.32 L520 332.68" stroke-width="7.5"></path><path d="M530 148.78 L530 411.22" stroke-width="7.5"></path><path d="M540 209.33 L540 350.67" stroke-width="7.5"></path><path d="M550 162.58 L550 397.42" stroke-width="7.5"></path><path d="M560 172.83 L560 387.17" stroke-width="7.5"></path><path d="M570 200.55 L570 359.45" stroke-width="7.5"></path><path d="M580 253.12 L580 306.88" stroke-width="7.5"></path><path d="M590 201.58 L590 358.42" stroke-width="7.5"></path><path d="M600 101.44 L600 458.56" stroke-width="7.5"></path><path d="M610 236.91 L610 323.08" stroke-width="7.5"></path><path d="M620 209.71 L620 350.29" stroke-width="7.5"></path><path d="M630 201.08 L630 358.92" stroke-width="7.5"></path><path d="M640 167.9 L640 392.1" stroke-width="7.5"></path><path d="M650 253.71 L650 306.29" stroke-width="7.5"></path><path d="M660 152.99 L660 407.01" stroke-width="7.5"></path><path d="M670 206.19 L670 353.81" stroke-width="7.5"></path><path d="M680 252.95 L680 307.05" stroke-width="7.5"></path><path d="M690 157.75 L690 402.25" stroke-width="7.5"></path><path d="M700 140.82 L700 419.18" stroke-width="7.5"></path><path d="M710 245.91 L710 314.09" stroke-width="7.5"></path><path d="M720 208.46 L720 351.54" stroke-width="7.5"></path><path d="M730 189.64 L730 370.36" stroke-width="7.5"></path><path d="M740 230.63 L740 329.37" stroke-width="7.5"></path><path d="M750 231.32 L750 328.68" stroke-width="7.5"></path><path d="M760 234.13 L760 325.88" stroke-width="7.5"></path><path d="M770 145.17 L770 414.83" stroke-width="7.5"></path><path d="M780 173.72 L780 386.28" stroke-width="7.5"></path><path d="M790 123.24 L790 436.76" stroke-width="7.5"></path><path d="M800 247.78 L800 312.22" stroke-width="7.5"></path><path d="M810 187.54 L810 372.46" stroke-width="7.5"></path><path d="M820 133.78 L820 426.22" stroke-width="7.5"></path><path d="M830 130.79 L830 429.21" stroke-width="7.5"></path><path d="M840 246.97 L840 313.02" stroke-width="7.5"></path><path d="M850 205.16 L850 354.84" stroke-width="7.5"></path><path d="M860 236.62 L860 323.38" stroke-width="7.5"></path><path d="M870 195.69 L870 364.31" stroke-width="7.5"></path><path d="M880 230.34 L880 329.65" stroke-width="7.5"></path><path d="M890 167.19 L890 392.81" stroke-width="7.5"></path><path d="M900 183.28 L900 376.73" stroke-width="7.5"></path><path d="M910 160.34 L910 399.65" stroke-width="7.5"></path><path d="M920 229.02 L920 330.98" stroke-width="7.5"></path><path d="M930 171.72 L930 388.27" stroke-width="7.5"></path><path d="M940 108.31 L940 451.69" stroke-width="7.5"></path><path d="M950 101.07 L950 458.93" stroke-width="7.5"></path><path d="M960 193.06 L960 366.94" stroke-width="7.5"></path><path d="M970 155.8 L970 404.2" stroke-width="7.5"></path><path d="M980 240.47 L980 319.53" stroke-width="7.5"></path><path d="M990 106.6 L990 453.4" stroke-width="7.5"></path><path d="M1000 215.95 L1000 344.05" stroke-width="7.5"></path><path d="M1010 254.56 L1010 305.44" stroke-width="7.5"></path><path d="M1020 109.16 L1020 450.84" stroke-width="7.5"></path><path d="M1030 205.31 L1030 354.69" stroke-width="7.5"></path><path d="M1040 154.46 L1040 405.54" stroke-width="7.5"></path><path d="M1050 157 L1050 403" stroke-width="7.5"></path><path d="M1060 197.81 L1060 362.19" stroke-width="7.5"></path><path d="M1070 258.57 L1070 301.43" stroke-width="7.5"></path><path d="M1080 252.22 L1080 307.78" stroke-width="7.5"></path><path d="M1090 241.81 L1090 318.19" stroke-width="7.5"></path><path d="M1100 215.13 L1100 344.87" stroke-width="7.5"></path><path d="M1110 109.74 L1110 450.26" stroke-width="7.5"></path><path d="M1120 124.66 L1120 435.35" stroke-width="7.5"></path><path d="M1130 258.88 L1130 301.13" stroke-width="7.5"></path><path d="M1140 217.88 L1140 342.13" stroke-width="7.5"></path><path d="M1150 160.5 L1150 399.5" stroke-width="7.5"></path><path d="M1160 256.61 L1160 303.39" stroke-width="7.5"></path><path d="M1170 101.26 L1170 458.74" stroke-width="7.5"></path><path d="M1180 187.44 L1180 372.56" stroke-width="7.5"></path><path d="M1190 211.29 L1190 348.71" stroke-width="7.5"></path></g></g><defs><mask id="SvgjsMask1041"><rect width="1440" height="560" fill="#ffffff"></rect></mask><linearGradient x1="244.8" y1="280" x2="1195.2" y2="280" gradientUnits="userSpaceOnUse" id="SvgjsLinearGradient1042"><stop stop-color="#3a7cc3" offset="0"></stop><stop stop-color="#dd1133" offset="1"></stop></linearGradient></defs></svg>